<svg xmlns="http://www.w3.org/2000/svg" viewBox="0 0 497.35 81.7">
  <defs>
    <style>
      .cls-1 {
        fill: #333;
      }

      .cls-2 {
        fill: #f36c41;
      }

      .cls-3 {
        fill: #33c1da;
      }

      .cls-4 {
        fill: #f3b041;
      }
    </style>
  </defs>
  <title>portfolio</title>
  <g id="portfolio">
    <g>
      <path class="cls-1" d="M12.38,72.28a3.64,3.64,0,0,1-1.11-2.67V19.5a3.74,3.74,0,0,1,1.11-2.7A3.53,3.53,0,0,1,15,15.65H33.71q7.7,0,12.69,2.62a17.2,17.2,0,0,1,6.92,6.43,17.81,17.81,0,0,1,2.33,9.21,18.72,18.72,0,0,1-2.12,8.85,15.75,15.75,0,0,1-7.25,6.87,27.7,27.7,0,0,1-12.57,2.54H18.89V69.61a3.6,3.6,0,0,1-1.15,2.67,3.8,3.8,0,0,1-2.7,1.1A3.63,3.63,0,0,1,12.38,72.28ZM44.23,42.14A9.61,9.61,0,0,0,48,33.91a9.61,9.61,0,0,0-3.81-8.23Q40.42,22.86,33,22.86H19.87a.86.86,0,0,0-1,1V45H33Q40.42,45,44.23,42.14Z"/>
      <g>
        <path class="cls-2" d="M102.9,24.82A21.57,21.57,0,0,0,91.68,22a20.8,20.8,0,0,0-11.3,2.94,19.34,19.34,0,0,0-7.32,7.91,24.84,24.84,0,0,0-2.58,11.5A25.35,25.35,0,0,0,73,55.78a19,19,0,0,0,7.42,8.06,21.66,21.66,0,0,0,11.25,2.83,20.82,20.82,0,0,0,11.31-3,19.38,19.38,0,0,0,7.32-7.9,24.91,24.91,0,0,0,2.58-11.51,25.27,25.27,0,0,0-2.53-11.46A19.3,19.3,0,0,0,102.9,24.82Z"/>
        <path class="cls-1" d="M116.78,29.08a26,26,0,0,0-10-10.48,29.83,29.83,0,0,0-15.15-3.77A29.67,29.67,0,0,0,76.62,18.6,25.42,25.42,0,0,0,66.55,29.08a33.2,33.2,0,0,0,0,30.5A26.12,26.12,0,0,0,76.54,70a29.71,29.71,0,0,0,15.14,3.77,29.38,29.38,0,0,0,15-3.77,26,26,0,0,0,10.11-10.56,33,33,0,0,0,0-30.38Zm-6.47,26.74a19.38,19.38,0,0,1-7.32,7.9,20.82,20.82,0,0,1-11.31,3,21.66,21.66,0,0,1-11.25-2.83A19,19,0,0,1,73,55.78a25.35,25.35,0,0,1-2.53-11.47,24.84,24.84,0,0,1,2.58-11.5,19.34,19.34,0,0,1,7.32-7.91A20.8,20.8,0,0,1,91.68,22a21.57,21.57,0,0,1,11.22,2.86,19.3,19.3,0,0,1,7.46,8,25.27,25.27,0,0,1,2.53,11.46A24.91,24.91,0,0,1,110.31,55.82Z"/>
      </g>
      <path class="cls-1" d="M175.13,54a28.65,28.65,0,0,1,2.37,11.84v3.76a3.76,3.76,0,0,1-3.76,3.77,3.87,3.87,0,0,1-2.79-1,3.63,3.63,0,0,1-1.06-2.75V67.16a37.31,37.31,0,0,0-.74-7.62,11.2,11.2,0,0,0-3.72-6.34q-2.91-2.51-8.15-2.5H140.41V69.61a3.57,3.57,0,0,1-1.15,2.67,3.77,3.77,0,0,1-2.7,1.1,3.77,3.77,0,0,1-3.77-3.77V19.5a3.74,3.74,0,0,1,1.11-2.7,3.54,3.54,0,0,1,2.66-1.15h19.08q10.81,0,16.58,4.54A14.7,14.7,0,0,1,178,32.36a15.56,15.56,0,0,1-2.75,9,15.34,15.34,0,0,1-7.82,5.82A11.73,11.73,0,0,1,175.13,54Zm-8.8-13.34a9,9,0,0,0,4-7.74c0-3.39-1.22-5.91-3.64-7.58s-6.43-2.49-12-2.49H141.39a.86.86,0,0,0-1,1V43.49h14.74Q162.28,43.49,166.33,40.67Z"/>
      <path class="cls-1" d="M205.47,72.28a3.64,3.64,0,0,1-1.11-2.67V22.77H187.74a3.48,3.48,0,0,1-3.52-3.52,3.55,3.55,0,0,1,1-2.54,3.39,3.39,0,0,1,2.5-1.06h40.78a3.51,3.51,0,0,1,2.54,1.06,3.47,3.47,0,0,1,1.06,2.54,3.32,3.32,0,0,1-1.06,2.5,3.55,3.55,0,0,1-2.54,1H212V69.61a3.57,3.57,0,0,1-1.15,2.67,3.77,3.77,0,0,1-2.7,1.1A3.65,3.65,0,0,1,205.47,72.28Z"/>
      <path class="cls-1" d="M242.07,72.28a3.67,3.67,0,0,1-1.1-2.67V19.5a3.77,3.77,0,0,1,1.1-2.7,3.56,3.56,0,0,1,2.66-1.15h31.86a3.51,3.51,0,0,1,2.54,1.06,3.47,3.47,0,0,1,1.06,2.54,3.32,3.32,0,0,1-1.06,2.5,3.55,3.55,0,0,1-2.54,1h-27a.88.88,0,0,0-1,1v17h25.14a3.64,3.64,0,0,1,3.61,3.6,3.34,3.34,0,0,1-1.07,2.5,3.53,3.53,0,0,1-2.54,1H248.58V69.61a3.59,3.59,0,0,1-1.14,2.67,3.81,3.81,0,0,1-2.71,1.1A3.66,3.66,0,0,1,242.07,72.28Z"/>
      <g>
        <path class="cls-3" d="M325.72,24.82A21.57,21.57,0,0,0,314.5,22a20.78,20.78,0,0,0-11.3,2.94,19.37,19.37,0,0,0-7.33,7.91,24.84,24.84,0,0,0-2.58,11.5,25.35,25.35,0,0,0,2.54,11.47,19,19,0,0,0,7.41,8.06,21.72,21.72,0,0,0,11.26,2.83,20.76,20.76,0,0,0,11.3-3,19.34,19.34,0,0,0,7.33-7.9,24.91,24.91,0,0,0,2.58-11.51,25.15,25.15,0,0,0-2.54-11.46A19.21,19.21,0,0,0,325.72,24.82Z"/>
        <path class="cls-1" d="M339.6,29.08a26,26,0,0,0-10-10.48,32.14,32.14,0,0,0-30.21,0,25.51,25.51,0,0,0-10.08,10.48,33.28,33.28,0,0,0,0,30.5,26.26,26.26,0,0,0,10,10.44,29.78,29.78,0,0,0,15.15,3.77,29.38,29.38,0,0,0,15-3.77,26,26,0,0,0,10.11-10.56,33,33,0,0,0,0-30.38Zm-6.47,26.74a19.34,19.34,0,0,1-7.33,7.9,20.76,20.76,0,0,1-11.3,3,21.72,21.72,0,0,1-11.26-2.83,19,19,0,0,1-7.41-8.06,25.35,25.35,0,0,1-2.54-11.47,24.84,24.84,0,0,1,2.58-11.5,19.37,19.37,0,0,1,7.33-7.91A20.78,20.78,0,0,1,314.5,22a21.57,21.57,0,0,1,11.22,2.86,19.21,19.21,0,0,1,7.45,8,25.15,25.15,0,0,1,2.54,11.46A24.91,24.91,0,0,1,333.13,55.82Z"/>
      </g>
      <path class="cls-1" d="M357.17,71.42a5,5,0,0,1-1.56-3.69V19.09a3.74,3.74,0,0,1,1.11-2.7,3.53,3.53,0,0,1,2.66-1.15,3.66,3.66,0,0,1,2.7,1.15,3.7,3.7,0,0,1,1.15,2.7V64.37a.87.87,0,0,0,1,1h25.71a3.89,3.89,0,0,1,3.85,3.85,3.59,3.59,0,0,1-1.14,2.66,3.81,3.81,0,0,1-2.71,1.1H360.85A5,5,0,0,1,357.17,71.42Z"/>
      <path class="cls-1" d="M403.89,72.28a3.64,3.64,0,0,1-1.11-2.67V19.09a3.74,3.74,0,0,1,1.11-2.7,3.53,3.53,0,0,1,2.66-1.15,3.91,3.91,0,0,1,3.84,3.85V69.61a3.59,3.59,0,0,1-1.14,2.67,3.8,3.8,0,0,1-2.7,1.1A3.63,3.63,0,0,1,403.89,72.28Z"/>
      <g>
        <path class="cls-4" d="M462.72,24.82A21.57,21.57,0,0,0,451.5,22a20.78,20.78,0,0,0-11.3,2.94,19.37,19.37,0,0,0-7.33,7.91,24.84,24.84,0,0,0-2.58,11.5,25.35,25.35,0,0,0,2.54,11.47,19,19,0,0,0,7.41,8.06,21.72,21.72,0,0,0,11.26,2.83,20.76,20.76,0,0,0,11.3-3,19.34,19.34,0,0,0,7.33-7.9,24.91,24.91,0,0,0,2.58-11.51,25.28,25.28,0,0,0-2.54-11.46A19.21,19.21,0,0,0,462.72,24.82Z"/>
        <path class="cls-1" d="M476.6,29.08a26,26,0,0,0-10-10.48,32.14,32.14,0,0,0-30.21,0,25.51,25.51,0,0,0-10.08,10.48,33.28,33.28,0,0,0,0,30.5,26.19,26.19,0,0,0,10,10.44,29.78,29.78,0,0,0,15.15,3.77,29.38,29.38,0,0,0,15-3.77,26,26,0,0,0,10.11-10.56,33,33,0,0,0,0-30.38Zm-6.47,26.74a19.34,19.34,0,0,1-7.33,7.9,20.76,20.76,0,0,1-11.3,3,21.72,21.72,0,0,1-11.26-2.83,19,19,0,0,1-7.41-8.06,25.35,25.35,0,0,1-2.54-11.47,24.84,24.84,0,0,1,2.58-11.5,19.37,19.37,0,0,1,7.33-7.91A20.78,20.78,0,0,1,451.5,22a21.57,21.57,0,0,1,11.22,2.86,19.21,19.21,0,0,1,7.45,8,25.28,25.28,0,0,1,2.54,11.46A24.91,24.91,0,0,1,470.13,55.82Z"/>
      </g>
      <path class="cls-1" d="M451.08,11a30,30,0,0,1,32.11,24.79c.66,3.8,6.45,2.19,5.78-1.59A35.85,35.85,0,0,0,451.08,5c-3.82.31-3.86,6.31,0,6Z"/>
    </g>
  </g>
</svg>
